#Comment line ignore any data following # character 
#Hierarchical Translation and Rotation (.htr) file 
[Header]	
#Header keywords are followed by a single value 
FileType HTR		#Single word string
DataType HTRS		#Translation followed by rotation and scale data
FileVersion 1		#integer
NumSegments 84		#integer
NumFrames 2		#integer
DataFrameRate 30		#integer, data frame rate in this file
EulerRotationOrder ZYX
CalibrationUnits mm
RotationUnits Degrees
GlobalAxisofGravity Y
BoneLengthAxis Y
ScaleFactor 1.00
[SegmentNames&Hierarchy]
#CHILD	PARENT
MASTER GLOBAL
root MASTER
chest root
L_mid_tent01 root
R_mid_tent01 root
spine01 root
Bip01_Neck chest
L_humerus chest
R_humerus chest
weapon_bone chest
Bip01_Head Bip01_Neck
eye_left_bone Bip01_Head
eye_right_bone Bip01_Head
L_forearm L_humerus
L_front_hand L_forearm
L_weapon_bone L_forearm
L_front_hand01_01 L_front_hand
L_front_hand02_01 L_front_hand
L_front_hand03_01 L_front_hand
L_front_hand01_02 L_front_hand01_01
L_front_hand02_02 L_front_hand02_01
L_front_hand03_02 L_front_hand03_01
R_forearm R_humerus
R_front_hand R_forearm
R_weapon_bone R_forearm
R_front_hand01_01 R_front_hand
R_front_hand02_01 R_front_hand
R_front_hand03_01 R_front_hand
R_front_hand01_02 R_front_hand01_01
R_front_hand02_02 R_front_hand02_01
R_front_hand03_02 R_front_hand03_01
null_rope01_connect L_mid_tent01
Rope1_Seg01 null_rope01_connect
Rope1_Seg02 Rope1_Seg01
Rope1_Seg03 Rope1_Seg02
Rope1_Seg04 Rope1_Seg03
Rope1_Seg05 Rope1_Seg04
Rope1_Seg06 Rope1_Seg05
Rope1_Seg07 Rope1_Seg06
Rope1_Seg09 Rope1_Seg07
L_mid_hand01 Rope1_Seg09
L_mid_hand02 Rope1_Seg09
L_mid_hand03 Rope1_Seg09
null_rope02_connect R_mid_tent01
Rope2_Seg01 null_rope02_connect
Rope2_Seg02 Rope2_Seg01
Rope2_Seg03 Rope2_Seg02
Rope2_Seg04 Rope2_Seg03
Rope2_Seg05 Rope2_Seg04
Rope2_Seg06 Rope2_Seg05
Rope2_Seg07 Rope2_Seg06
Rope2_Seg09 Rope2_Seg07
R_mid_hand01 Rope2_Seg09
R_mid_hand02 Rope2_Seg09
R_mid_hand03 Rope2_Seg09
spine02 spine01
spine03 spine02
pelvis spine03
null_rope03_connect pelvis
null_rope04_connect pelvis
Rope3_Seg01 null_rope03_connect
Rope3_Seg02 Rope3_Seg01
Rope3_Seg03 Rope3_Seg02
Rope3_Seg04 Rope3_Seg03
Rope3_Seg05 Rope3_Seg04
Rope3_Seg06 Rope3_Seg05
Rope3_Seg07 Rope3_Seg06
Rope3_Seg08 Rope3_Seg07
Rope3_Seg09 Rope3_Seg08
R_rear_hand01 Rope3_Seg09
R_rear_hand02 Rope3_Seg09
R_rear_hand03 Rope3_Seg09
Rope4_Seg01 null_rope04_connect
Rope4_Seg02 Rope4_Seg01
Rope4_Seg03 Rope4_Seg02
Rope4_Seg04 Rope4_Seg03
Rope4_Seg05 Rope4_Seg04
Rope4_Seg06 Rope4_Seg05
Rope4_Seg07 Rope4_Seg06
Rope4_Seg08 Rope4_Seg07
Rope4_Seg09 Rope4_Seg08
L_rear_hand01 Rope4_Seg09
L_rear_hand02 Rope4_Seg09
L_rear_hand03 Rope4_Seg09
[BasePosition]
#SegmentName Tx, Ty, Tz, Rx, Ry, Rz, BoneLength
MASTER 0.000000 0.000000 0.000000 -90.000000 0.000000 0.000000 10.000000 
root 0.000000 0.000000 0.000000 0.000000 0.000000 0.000000 10.000000 
chest 0.000000 0.000000 0.000000 0.000000 0.000000 0.000000 10.000000 
L_mid_tent01 0.000000 0.000000 0.000000 0.000000 0.000000 0.000000 10.000000 
R_mid_tent01 0.000000 0.000000 0.000000 0.000000 0.000000 0.000000 10.000000 
spine01 0.000000 0.000000 0.000000 0.000000 0.000000 0.000000 10.000000 
Bip01_Neck 0.000000 0.000000 0.000000 0.000000 0.000000 0.000000 10.000000 
L_humerus 0.000000 0.000000 0.000000 0.000000 0.000000 0.000000 10.000000 
R_humerus 0.000000 0.000000 0.000000 0.000000 0.000000 0.000000 10.000000 
weapon_bone 0.000000 0.000000 0.000000 0.000000 0.000000 0.000000 10.000000 
Bip01_Head 0.000000 0.000000 0.000000 0.000000 0.000000 0.000000 10.000000 
eye_left_bone 0.000000 0.000000 0.000000 0.000000 0.000000 0.000000 10.000000 
eye_right_bone 0.000000 0.000000 0.000000 0.000000 0.000000 0.000000 10.000000 
L_forearm 0.000000 0.000000 0.000000 0.000000 0.000000 0.000000 10.000000 
L_front_hand 0.000000 0.000000 0.000000 0.000000 0.000000 0.000000 10.000000 
L_weapon_bone 0.000000 0.000000 0.000000 0.000000 0.000000 0.000000 10.000000 
L_front_hand01_01 0.000000 0.000000 0.000000 0.000000 0.000000 0.000000 10.000000 
L_front_hand02_01 0.000000 0.000000 0.000000 0.000000 0.000000 0.000000 10.000000 
L_front_hand03_01 0.000000 0.000000 0.000000 0.000000 0.000000 0.000000 10.000000 
L_front_hand01_02 0.000000 0.000000 0.000000 0.000000 0.000000 0.000000 10.000000 
L_front_hand02_02 0.000000 0.000000 0.000000 0.000000 0.000000 0.000000 10.000000 
L_front_hand03_02 0.000000 0.000000 0.000000 0.000000 0.000000 0.000000 10.000000 
R_forearm 0.000000 0.000000 0.000000 0.000000 0.000000 0.000000 10.000000 
R_front_hand 0.000000 0.000000 0.000000 0.000000 0.000000 0.000000 10.000000 
R_weapon_bone 0.000000 0.000000 0.000000 0.000000 0.000000 0.000000 10.000000 
R_front_hand01_01 0.000000 0.000000 0.000000 0.000000 0.000000 0.000000 10.000000 
R_front_hand02_01 0.000000 0.000000 0.000000 0.000000 0.000000 0.000000 10.000000 
R_front_hand03_01 0.000000 0.000000 0.000000 0.000000 0.000000 0.000000 10.000000 
R_front_hand01_02 0.000000 0.000000 0.000000 0.000000 0.000000 0.000000 10.000000 
R_front_hand02_02 0.000000 0.000000 0.000000 0.000000 0.000000 0.000000 10.000000 
R_front_hand03_02 0.000000 0.000000 0.000000 0.000000 0.000000 0.000000 10.000000 
null_rope01_connect 0.000000 0.000000 0.000000 0.000000 0.000000 0.000000 10.000000 
Rope1_Seg01 0.000000 0.000000 0.000000 0.000000 0.000000 0.000000 10.000000 
Rope1_Seg02 0.000000 0.000000 0.000000 0.000000 0.000000 0.000000 10.000000 
Rope1_Seg03 0.000000 0.000000 0.000000 0.000000 0.000000 0.000000 10.000000 
Rope1_Seg04 0.000000 0.000000 0.000000 0.000000 0.000000 0.000000 10.000000 
Rope1_Seg05 0.000000 0.000000 0.000000 0.000000 0.000000 0.000000 10.000000 
Rope1_Seg06 0.000000 0.000000 0.000000 0.000000 0.000000 0.000000 10.000000 
Rope1_Seg07 0.000000 0.000000 0.000000 0.000000 0.000000 0.000000 10.000000 
Rope1_Seg09 0.000000 0.000000 0.000000 0.000000 0.000000 0.000000 10.000000 
L_mid_hand01 0.000000 0.000000 0.000000 0.000000 0.000000 0.000000 10.000000 
L_mid_hand02 0.000000 0.000000 0.000000 0.000000 0.000000 0.000000 10.000000 
L_mid_hand03 0.000000 0.000000 0.000000 0.000000 0.000000 0.000000 10.000000 
null_rope02_connect 0.000000 0.000000 0.000000 0.000000 0.000000 0.000000 10.000000 
Rope2_Seg01 0.000000 0.000000 0.000000 0.000000 0.000000 0.000000 10.000000 
Rope2_Seg02 0.000000 0.000000 0.000000 0.000000 0.000000 0.000000 10.000000 
Rope2_Seg03 0.000000 0.000000 0.000000 0.000000 0.000000 0.000000 10.000000 
Rope2_Seg04 0.000000 0.000000 0.000000 0.000000 0.000000 0.000000 10.000000 
Rope2_Seg05 0.000000 0.000000 0.000000 0.000000 0.000000 0.000000 10.000000 
Rope2_Seg06 0.000000 0.000000 0.000000 0.000000 0.000000 0.000000 10.000000 
Rope2_Seg07 0.000000 0.000000 0.000000 0.000000 0.000000 0.000000 10.000000 
Rope2_Seg09 0.000000 0.000000 0.000000 0.000000 0.000000 0.000000 10.000000 
R_mid_hand01 0.000000 0.000000 0.000000 0.000000 0.000000 0.000000 10.000000 
R_mid_hand02 0.000000 0.000000 0.000000 0.000000 0.000000 0.000000 10.000000 
R_mid_hand03 0.000000 0.000000 0.000000 0.000000 0.000000 0.000000 10.000000 
spine02 0.000000 0.000000 0.000000 0.000000 0.000000 0.000000 10.000000 
spine03 0.000000 0.000000 0.000000 0.000000 0.000000 0.000000 10.000000 
pelvis 0.000000 0.000000 0.000000 0.000000 0.000000 0.000000 10.000000 
null_rope03_connect 0.000000 0.000000 0.000000 0.000000 0.000000 0.000000 10.000000 
null_rope04_connect 0.000000 0.000000 0.000000 0.000000 0.000000 0.000000 10.000000 
Rope3_Seg01 0.000000 0.000000 0.000000 0.000000 0.000000 0.000000 10.000000 
Rope3_Seg02 0.000000 0.000000 0.000000 0.000000 0.000000 0.000000 10.000000 
Rope3_Seg03 0.000000 0.000000 0.000000 0.000000 0.000000 0.000000 10.000000 
Rope3_Seg04 0.000000 0.000000 0.000000 0.000000 0.000000 0.000000 10.000000 
Rope3_Seg05 0.000000 0.000000 0.000000 0.000000 0.000000 0.000000 10.000000 
Rope3_Seg06 0.000000 0.000000 0.000000 0.000000 0.000000 0.000000 10.000000 
Rope3_Seg07 0.000000 0.000000 0.000000 0.000000 0.000000 0.000000 10.000000 
Rope3_Seg08 0.000000 0.000000 0.000000 0.000000 0.000000 0.000000 10.000000 
Rope3_Seg09 0.000000 0.000000 0.000000 0.000000 0.000000 0.000000 10.000000 
R_rear_hand01 0.000000 0.000000 0.000000 0.000000 0.000000 0.000000 10.000000 
R_rear_hand02 0.000000 0.000000 0.000000 0.000000 0.000000 0.000000 10.000000 
R_rear_hand03 0.000000 0.000000 0.000000 0.000000 0.000000 0.000000 10.000000 
Rope4_Seg01 0.000000 0.000000 0.000000 0.000000 0.000000 0.000000 10.000000 
Rope4_Seg02 0.000000 0.000000 0.000000 0.000000 0.000000 0.000000 10.000000 
Rope4_Seg03 0.000000 0.000000 0.000000 0.000000 0.000000 0.000000 10.000000 
Rope4_Seg04 0.000000 0.000000 0.000000 0.000000 0.000000 0.000000 10.000000 
Rope4_Seg05 0.000000 0.000000 0.000000 0.000000 0.000000 0.000000 10.000000 
Rope4_Seg06 0.000000 0.000000 0.000000 0.000000 0.000000 0.000000 10.000000 
Rope4_Seg07 0.000000 0.000000 0.000000 0.000000 0.000000 0.000000 10.000000 
Rope4_Seg08 0.000000 0.000000 0.000000 0.000000 0.000000 0.000000 10.000000 
Rope4_Seg09 0.000000 0.000000 0.000000 0.000000 0.000000 0.000000 10.000000 
L_rear_hand01 0.000000 0.000000 0.000000 0.000000 0.000000 0.000000 10.000000 
L_rear_hand02 0.000000 0.000000 0.000000 0.000000 0.000000 0.000000 10.000000 
L_rear_hand03 0.000000 0.000000 0.000000 0.000000 0.000000 0.000000 10.000000 
#Beginning of Data. Separated by tabs
#Fr	Tx	Ty	Tz	Rx	Ry	Rz	SF
[MASTER]
18 -0.000510 3395.926025 -546.239380 0.001660 0.001660 0.001660 3439.576904
19 -0.000525 3493.435547 -772.525635 0.001660 0.001660 0.001660 3577.832764
[root]
18 100.027901 13.720064 1224.286011 -102.619019 -31.334938 -90.103256 1228.442017
19 97.111641 10.942993 1114.230469 -103.724129 -29.509918 -90.215668 1118.507935
[chest]
18 -84.512650 -34.090519 0.000000 3.087625 -0.065505 -176.346619 91.129311
19 -84.512650 -34.090519 0.000000 3.446093 -0.150239 -175.556870 91.129311
[L_mid_tent01]
18 27.299383 22.177589 -249.918274 -1.916219 22.142706 67.329491 252.381149
19 27.299376 22.177595 -249.918274 -1.830896 22.946091 67.360573 252.381149
[R_mid_tent01]
18 23.228794 24.509907 226.238495 172.079208 -24.676315 60.384167 228.744751
19 23.228794 24.509907 226.238495 172.485016 -24.341562 59.306042 228.744751
[spine01]
18 -0.361383 -0.195265 0.000000 0.001845 0.001451 13.654368 0.410763
19 -0.361383 -0.195265 0.000000 0.001845 0.001451 13.654366 0.410763
[Bip01_Neck]
18 165.484543 71.581718 0.000119 176.643677 -1.657966 43.431908 180.302734
19 165.484543 71.581718 0.000119 176.643677 -1.657967 43.431911 180.302734
[L_humerus]
18 -13.983130 -135.272980 -120.471481 112.875153 81.511681 -156.480560 181.680161
19 -13.983130 -135.272980 -120.471481 108.064362 81.775093 -161.345703 181.680161
[R_humerus]
18 -13.983309 -135.273102 125.287651 -169.372986 -73.623581 -95.748680 184.909012
19 -13.983309 -135.273102 125.287651 -169.632095 -73.198067 -95.474533 184.909012
[weapon_bone]
18 235.964890 -300.705902 0.000000 0.000000 -89.951546 -128.212341 382.234833
19 235.964890 -300.705902 0.000000 0.000000 -89.951546 -128.212341 382.234833
[Bip01_Head]
18 213.674301 185.076477 20.027388 4.962490 2.797848 -43.898743 283.392120
19 213.665771 185.098953 19.737091 4.440152 -1.457900 -43.897720 283.380005
[eye_left_bone]
18 -24.626970 125.451866 -64.772606 0.000000 -90.000000 -99.840431 143.318359
19 -24.626970 125.451866 -64.772606 0.000000 -90.000000 -99.840431 143.318359
[eye_right_bone]
18 -24.626970 125.451866 64.327362 0.000000 -89.972023 80.156380 143.117676
19 -24.626970 125.451866 64.327362 0.000000 -89.965736 80.156380 143.117676
[L_forearm]
18 322.776093 0.000000 -0.000119 0.000119 -0.002344 -95.807457 322.776093
19 322.776093 0.000000 -0.000119 0.000119 -0.002344 -95.807457 322.776093
[L_front_hand]
18 241.149185 -0.042021 -3.300071 -178.667953 -1.835447 -27.422350 241.171753
19 241.149185 -0.042021 -3.300071 -178.667953 -1.835447 -27.422342 241.171753
[L_weapon_bone]
18 156.183838 0.000000 0.000000 0.000014 0.000007 0.000001 156.183838
19 156.183838 0.000000 0.000000 0.000014 0.000007 0.000001 156.183838
[L_front_hand01_01]
18 86.095154 20.947098 -0.655860 -0.281026 -0.528937 65.755089 88.609184
19 86.095154 20.947098 -0.655860 -0.289102 -0.524108 66.611076 88.609184
[L_front_hand02_01]
18 86.935165 -11.437475 24.513514 141.611877 -54.742973 -46.215725 91.046425
19 86.935165 -11.437475 24.513514 142.580521 -55.269005 -47.395390 91.046425
[L_front_hand03_01]
18 86.637497 -14.123976 -20.424902 -141.973572 52.970398 -48.259937 90.126129
19 86.637497 -14.123976 -20.424902 -142.879883 53.494282 -49.391994 90.126129
[L_front_hand01_02]
18 71.020905 -0.000179 0.000030 0.000315 -0.002326 -105.412971 71.020905
19 71.020905 -0.000179 0.000030 0.000316 -0.002326 -105.456474 71.020905
[L_front_hand02_02]
18 71.020927 -0.000119 0.000060 0.000315 -0.002326 -105.412971 71.020927
19 71.020927 -0.000119 0.000060 0.000316 -0.002326 -105.456474 71.020927
[L_front_hand03_02]
18 71.020905 -0.000060 0.000060 0.000315 -0.002326 -105.412971 71.020905
19 71.020905 -0.000060 0.000060 0.000316 -0.002326 -105.456474 71.020905
[R_forearm]
18 322.776428 -0.000060 0.000030 0.209504 0.012586 -94.339050 322.776428
19 322.776428 -0.000060 0.000030 0.209504 0.012586 -94.339050 322.776428
[R_front_hand]
18 238.847015 -0.006795 2.210259 -2.635298 -10.645461 -26.312506 238.857239
19 238.847015 -0.006795 2.210259 -2.635298 -10.645461 -26.312506 238.857239
[R_weapon_bone]
18 155.664093 0.002503 -0.000030 0.003487 0.001180 -90.988930 155.664078
19 155.664093 0.002503 -0.000030 0.003487 0.001180 -90.988930 155.664078
[R_front_hand01_01]
18 87.624611 14.231146 22.918642 -139.165207 -53.267754 43.295242 91.683487
19 87.624611 14.231146 22.918642 -141.083969 -54.436913 45.672482 91.683487
[R_front_hand02_01]
18 89.356956 14.367283 -19.491137 139.980438 51.699215 45.970734 92.579636
19 89.356956 14.367283 -19.491137 141.813004 52.852688 48.289932 92.579636
[R_front_hand03_01]
18 87.286232 -22.307278 -0.143439 0.071045 -0.448771 -63.677063 90.091743
19 87.286232 -22.307278 -0.143439 0.082367 -0.444902 -65.508453 90.091743
[R_front_hand01_02]
18 71.020905 0.000060 0.000119 0.002323 -0.000334 106.381714 71.020905
19 71.020905 0.000060 0.000119 0.002323 -0.000334 106.381706 71.020905
[R_front_hand02_02]
18 71.020844 -0.000030 -0.000119 0.002323 -0.000334 106.381714 71.020836
19 71.020844 -0.000030 -0.000119 0.002323 -0.000334 106.381706 71.020836
[R_front_hand03_02]
18 71.020905 0.000000 0.000030 0.002323 -0.000334 106.381714 71.020905
19 71.020905 0.000000 0.000030 0.002323 -0.000334 106.381706 71.020905
[null_rope01_connect]
18 328.732483 0.000000 -0.000238 -136.895554 -55.473881 -168.732559 328.732483
19 328.732483 0.000000 -0.000238 -138.537643 -53.548588 -168.856491 328.732483
[Rope1_Seg01]
18 0.000000 0.000000 0.000000 41.177074 -14.006323 -115.210045 0.000000
19 0.000000 0.000000 0.000000 56.777111 -33.141033 -128.018616 0.000000
[Rope1_Seg02]
18 139.999863 -0.000179 0.000000 144.926575 26.368086 -42.718945 139.999863
19 139.999863 -0.000179 0.000000 36.827602 12.031565 -44.801735 139.999863
[Rope1_Seg03]
18 139.999924 0.000060 -0.000060 9.364689 -24.441072 15.387662 139.999924
19 139.999924 0.000060 -0.000060 90.703865 -17.479200 -45.912247 139.999924
[Rope1_Seg04]
18 139.999924 -0.000060 -0.000119 0.921832 -8.478786 7.218660 139.999924
19 139.999924 -0.000060 -0.000119 4.406015 -12.688627 4.971477 139.999924
[Rope1_Seg05]
18 139.999832 0.000119 -0.000060 0.754494 -9.520259 7.492897 139.999832
19 139.999832 0.000119 -0.000060 0.966971 -10.494507 7.144170 139.999832
[Rope1_Seg06]
18 139.999954 0.000119 -0.000060 0.122781 -9.270739 7.633772 139.999954
19 139.999954 0.000119 -0.000060 0.173805 -10.051570 7.140313 139.999954
[Rope1_Seg07]
18 139.999985 0.000060 0.000000 -0.038145 -5.890449 5.106107 139.999985
19 139.999985 0.000060 0.000000 -0.048567 -6.756667 4.628143 139.999985
[Rope1_Seg09]
18 121.602913 0.000119 -0.000089 -89.793175 -1.359789 0.847147 121.602913
19 121.602913 0.000119 -0.000089 -89.793175 -1.359789 0.847147 121.602913
[L_mid_hand01]
18 103.859421 1.038730 8.195221 109.630608 -42.428204 -14.062104 104.187431
19 103.859421 1.038730 8.195221 110.331215 -44.470776 -15.085362 104.187431
[L_mid_hand02]
18 105.572853 -4.139662 -10.864139 -147.734787 32.524982 -39.820675 106.211075
19 105.572853 -4.139662 -10.864139 -148.937714 33.668659 -42.029243 106.211075
[L_mid_hand03]
18 104.641464 17.579376 -3.913581 -13.849796 12.791805 45.822666 106.179977
19 104.641464 17.579376 -3.913581 -13.360330 13.301838 47.989159 106.179977
[null_rope02_connect]
18 328.732849 0.000179 -0.000119 -73.730820 70.481972 45.712132 328.732849
19 328.732849 0.000179 -0.000119 -71.244492 71.110535 49.222584 328.732849
[Rope2_Seg01]
18 0.000062 0.000095 0.000058 17.085182 3.306855 -40.538639 0.000127
19 0.000061 0.000092 0.000061 17.282297 8.474566 -41.244629 0.000126
[Rope2_Seg02]
18 139.999741 -0.000060 -0.000119 -34.187664 10.875954 -0.821600 139.999756
19 139.999741 -0.000060 -0.000119 -90.548653 11.210625 -0.630141 139.999756
[Rope2_Seg03]
18 140.000107 0.000030 0.000000 -99.263649 12.011385 6.302571 140.000107
19 140.000107 0.000030 0.000000 -57.090729 1.565644 12.581395 140.000107
[Rope2_Seg04]
18 139.999802 0.000000 -0.000060 -22.319220 -3.679296 9.871247 139.999802
19 139.999802 0.000000 -0.000060 -12.287564 -4.823824 7.415790 139.999802
[Rope2_Seg05]
18 139.999985 -0.000060 0.000119 3.650885 -19.162085 5.183629 139.999985
19 139.999985 -0.000060 0.000119 7.816912 -24.645256 3.041783 139.999985
[Rope2_Seg06]
18 139.999893 -0.000030 -0.000119 -5.167717 -57.332970 17.944046 139.999893
19 139.999893 -0.000030 -0.000119 -5.987522 -58.356934 16.867170 139.999893
[Rope2_Seg07]
18 139.999893 0.000060 -0.000060 -2.673957 -22.840643 7.652547 139.999893
19 139.999893 0.000060 -0.000060 -2.315720 -18.222826 5.254227 139.999893
[Rope2_Seg09]
18 121.338966 0.000089 -0.000060 33.793236 -1.359788 -0.847141 121.338966
19 121.338966 0.000089 -0.000060 33.793236 -1.359788 -0.847141 121.338966
[R_mid_hand01]
18 104.680779 11.144459 -10.335981 -35.659058 33.675755 40.429829 105.778534
19 104.680779 11.144459 -10.335981 -36.495327 32.739510 38.894321 105.778534
[R_mid_hand02]
18 104.070427 2.443552 8.231699 69.379761 -45.224785 15.491559 104.424065
19 104.070427 2.443552 8.231699 69.926315 -43.736984 14.713636 104.424065
[R_mid_hand03]
18 106.028137 -11.221827 -5.996406 -170.548004 12.734514 -50.222630 106.788818
19 106.028137 -11.221827 -5.996406 -170.196442 12.469419 -48.616360 106.788818
[spine02]
18 129.756927 0.001550 0.000119 -1.023899 -3.926965 6.770993 129.756927
19 129.756927 0.001550 0.000119 -1.023899 -3.926965 6.770993 129.756927
[spine03]
18 78.614075 0.087318 -4.898872 1.040681 4.146420 4.212376 78.766609
19 78.614082 0.087311 -4.898872 1.040681 4.146420 4.212376 78.766624
[pelvis]
18 169.435242 0.051022 0.000000 0.019518 -0.190233 -10.721436 169.435257
19 169.435242 0.051022 0.000000 0.019518 -0.190233 -10.721436 169.435257
[null_rope03_connect]
18 -1.257226 -2.466202 137.391083 -148.326569 -77.023567 -104.184151 137.418976
19 -1.257226 -2.466202 137.391083 -149.819153 -75.866898 -104.529404 137.418976
[null_rope04_connect]
18 -1.259640 -2.480268 -137.844437 -148.326569 -77.023567 -104.184151 137.872513
19 -1.259640 -2.480268 -137.844437 -149.819153 -75.866898 -104.529404 137.872513
[Rope3_Seg01]
18 -0.000012 -0.000278 -0.000153 -146.305115 -41.862541 -59.576229 0.000317
19 -0.000011 -0.000290 -0.000153 -144.488495 -41.128372 -61.875156 0.000328
[Rope3_Seg02]
18 139.999924 -0.000119 0.000060 -0.653876 -13.953647 -29.978415 139.999924
19 139.999924 -0.000119 0.000060 1.770971 -15.870111 -30.556883 139.999924
[Rope3_Seg03]
18 139.999924 -0.000119 0.000119 0.962809 -3.484722 -4.571221 139.999924
19 139.999924 -0.000119 0.000119 2.178283 -4.205570 -4.509599 139.999924
[Rope3_Seg04]
18 139.999924 0.000119 0.000000 -6.552167 -2.650305 -8.476633 139.999924
19 139.999924 0.000119 0.000000 -4.370877 -3.297338 -8.029249 139.999924
[Rope3_Seg05]
18 139.999924 -0.000238 0.000060 -101.907616 -2.751788 -24.306473 139.999924
19 139.999924 -0.000238 0.000060 -109.696564 -5.220927 -23.258112 139.999924
[Rope3_Seg06]
18 139.999893 -0.000119 -0.000060 -35.438190 31.191593 3.749614 139.999893
19 139.999893 -0.000119 -0.000060 -36.062172 31.988535 5.142720 139.999893
[Rope3_Seg07]
18 139.999771 0.000060 -0.000119 -1.586225 10.249273 9.385246 139.999771
19 139.999771 0.000060 -0.000119 -1.014450 10.121897 10.283465 139.999771
[Rope3_Seg08]
18 139.999985 -0.000060 0.000000 -0.118717 4.958450 4.883972 139.999985
19 139.999985 -0.000060 0.000000 0.062249 4.886809 5.248400 139.999985
[Rope3_Seg09]
18 90.185997 -0.000179 -0.000060 89.793228 -1.359877 -0.847183 90.185997
19 90.185997 -0.000179 -0.000060 89.793228 -1.359877 -0.847183 90.185997
[R_rear_hand01]
18 103.366196 -6.073594 -10.757982 -165.364609 20.073742 -42.141056 104.101845
19 103.366196 -6.073594 -10.757982 -164.915863 19.747875 -40.821388 104.101845
[R_rear_hand02]
18 100.509819 12.039542 -7.992327 -30.084070 25.665682 39.802124 101.543350
19 100.509819 12.039542 -7.992327 -30.611040 25.017698 38.577400 101.543350
[R_rear_hand03]
18 101.539970 5.215704 5.435467 82.244064 -42.772606 9.150358 101.819031
19 101.539970 5.215704 5.435467 82.396393 -41.501781 8.918384 101.819031
[Rope4_Seg01]
18 -0.000062 -0.000119 0.000000 44.121265 -25.066967 -87.384438 0.000134
19 -0.000061 -0.000114 0.000000 44.127682 -23.589518 -87.042351 0.000130
[Rope4_Seg02]
18 139.999985 0.000060 0.000119 0.162544 -37.358040 11.855714 139.999985
19 139.999985 0.000060 0.000119 -0.321760 -37.976292 12.511565 139.999985
[Rope4_Seg03]
18 139.999924 0.000000 -0.000238 17.555565 -34.726124 17.525410 139.999924
19 139.999924 0.000000 -0.000238 17.755995 -35.572628 17.289511 139.999924
[Rope4_Seg04]
18 139.999985 0.000000 0.000119 12.895133 -9.924933 9.643777 139.999985
19 139.999985 0.000000 0.000119 14.085345 -10.739634 10.252120 139.999985
[Rope4_Seg05]
18 139.999802 -0.000060 -0.000119 24.982113 -16.321913 17.639505 139.999802
19 139.999802 -0.000060 -0.000119 21.587484 -13.032676 15.459020 139.999802
[Rope4_Seg06]
18 139.999924 0.000000 0.000060 27.884285 -10.150705 32.522762 139.999924
19 139.999924 0.000000 0.000060 23.122671 -7.966524 23.282536 139.999924
[Rope4_Seg07]
18 139.999802 0.000000 0.000000 7.022435 3.222977 13.479090 139.999802
19 139.999802 0.000000 0.000000 7.784655 1.298537 11.286857 139.999802
[Rope4_Seg08]
18 139.999924 0.000000 0.000119 0.572066 2.078647 5.504823 139.999924
19 139.999924 0.000000 0.000119 1.444248 1.404406 5.383276 139.999924
[Rope4_Seg09]
18 90.185791 0.000060 0.000060 -135.617828 2.228885 0.850567 90.185791
19 90.185791 0.000060 0.000060 -135.617828 2.228885 0.850567 90.185791
[L_rear_hand01]
18 101.696655 -8.392275 -7.654577 -28.796082 -27.129267 137.298477 102.329041
19 101.696655 -8.392275 -7.654577 -27.588619 -28.361088 134.712097 102.329041
[L_rear_hand02]
18 102.726799 -1.568258 5.773216 81.840157 45.725384 170.277420 102.900848
19 102.726799 -1.568258 5.773216 81.431328 48.300430 169.720108 102.900848
[L_rear_hand03]
18 104.552910 9.721220 -10.420293 -166.442245 -20.805418 -134.771164 105.519653
19 104.552910 9.721220 -10.420293 -167.421646 -21.393099 -132.057724 105.519653
